HIERARCHY
ROOT Hips
{
	OFFSET 0.000000 0.000000 0.000000
	CHANNELS 6 Xposition Yposition Zposition Zrotation Yrotation Xrotation 
	JOINT LowerBack
	{
		OFFSET 0.000000 0.000000 0.000000
		CHANNELS 3 Zrotation Yrotation Xrotation
		JOINT Spine
		{
			OFFSET 0.028270 2.035590 -0.193380
			CHANNELS 3 Zrotation Yrotation Xrotation
			JOINT Spine1
			{
				OFFSET 0.056720 2.048850 -0.042750
				CHANNELS 3 Zrotation Yrotation Xrotation
				JOINT Neck
				{
					OFFSET 0.000000 0.000000 0.000000
					CHANNELS 3 Zrotation Yrotation Xrotation
					JOINT Neck1
					{
						OFFSET -0.054170 1.746240 0.172020
						CHANNELS 3 Zrotation Yrotation Xrotation
						JOINT Head
						{
							OFFSET 0.104070 1.761360 -0.123970
							CHANNELS 3 Zrotation Yrotation Xrotation
							End Site
							{
								OFFSET 0.000000 0.000000 0.000000
							}
						}
					}
				}
				JOINT LeftShoulder
				{
					OFFSET 0.000000 0.000000 0.000000
					CHANNELS 3 Zrotation Yrotation Xrotation
					JOINT LeftArm
					{
						OFFSET 3.362410 1.200890 -0.311210
						CHANNELS 3 Zrotation Yrotation Xrotation
						JOINT LeftForeArm
						{
							OFFSET 4.983000 -0.000000 -0.000000
							CHANNELS 3 Zrotation Yrotation Xrotation
							JOINT LeftHand
							{
								OFFSET 3.483560 -0.000000 -0.000000
								CHANNELS 3 Zrotation Yrotation Xrotation
								JOINT LeftFingerBase
								{
									OFFSET 0.000000 0.000000 0.000000
									CHANNELS 3 Zrotation Yrotation Xrotation
									JOINT LeftHandIndex1
									{
										OFFSET 0.715260 -0.000000 -0.000000
										CHANNELS 3 Zrotation Yrotation Xrotation
										End Site
										{
											OFFSET 0.000000 0.000000 0.000000
										}
									}
								}
								JOINT LThumb
								{
									OFFSET 0.000000 0.000000 0.000000
									CHANNELS 3 Zrotation Yrotation Xrotation
									End Site
									{
										OFFSET 0.000000 0.000000 0.000000
									}
								}
							}
						}
					}
				}
				JOINT RightShoulder
				{
					OFFSET 0.000000 0.000000 0.000000
					CHANNELS 3 Zrotation Yrotation Xrotation
					JOINT RightArm
					{
						OFFSET -3.136600 1.374050 -0.404650
						CHANNELS 3 Zrotation Yrotation Xrotation
						JOINT RightForeArm
						{
							OFFSET -5.241900 -0.000000 -0.000000
							CHANNELS 3 Zrotation Yrotation Xrotation
							JOINT RightHand
							{
								OFFSET -3.444170 -0.000000 -0.000000
								CHANNELS 3 Zrotation Yrotation Xrotation
								JOINT RightFingerBase
								{
									OFFSET 0.000000 0.000000 0.000000
									CHANNELS 3 Zrotation Yrotation Xrotation
									JOINT RightHandIndex1
									{
										OFFSET -0.622530 -0.000000 -0.000000
										CHANNELS 3 Zrotation Yrotation Xrotation
										End Site
										{
											OFFSET 0.000000 0.000000 0.000000
										}
									}
								}
								JOINT RThumb
								{
									OFFSET 0.000000 0.000000 0.000000
									CHANNELS 3 Zrotation Yrotation Xrotation
									End Site
									{
										OFFSET 0.000000 0.000000 0.000000
									}
								}
							}
						}
					}
				}
			}
		}
	}
}
}
MOTION
Frames: 17
Frame Time: 0.008333
1.986035 17.159386 0.477797 144.756019 86.461687 176.539607 6.754102 -1.160154 2.914736 0.693129 -1.432152 -2.128734 -5.735636 -1.571287 1.224902 12.751898 4.906654 4.566102 -3.446276 -0.342637 2.919422 0.000000 0.000000 0.000000 -6.940372 -7.197540 1.830067 -71.681998 -26.573517 2.290252 -1.859970 -2.649067 -0.046158 20.459847 3.911182 0.689134 -0.103546 0.111244 0.000000 0.000000 0.000000 0.000000 0.000000 0.000000 0.000000 17.639929 1.630152 -0.029621 70.735796 22.447534 -0.521000 3.305609 16.404308 0.009220 6.489924 5.224007 0.299808 0.013256 -0.067525 -0.000000 0.000000 0.000000 0.000000 0.000000 0.000000 0.000000 
2.236169 17.227751 0.502894 140.882542 86.278297 172.774207 6.267944 -1.104227 2.776502 0.582069 -1.366154 -2.170954 -5.699499 -1.503847 1.215488 12.434849 4.804748 4.337416 -3.491995 -0.344804 2.859484 0.000000 0.000000 0.000000 -6.810803 -6.833404 1.966249 -70.500606 -24.214937 2.151545 -1.951562 -3.138513 -0.044858 20.069792 5.746819 1.004024 -0.097206 0.101931 0.000000 0.000000 0.000000 0.000000 0.000000 0.000000 0.000000 17.555486 1.705890 -0.084064 72.218125 22.983140 3.880747 3.340374 17.416185 0.008899 7.796800 4.801113 0.331791 0.001384 -0.062181 -0.000000 0.000000 0.000000 0.000000 0.000000 0.000000 0.000000 
2.487049 17.293920 0.527119 136.666544 86.160910 168.676645 5.739894 -1.031074 2.650350 0.457015 -1.279828 -2.208091 -5.682471 -1.415686 1.212726 12.163137 4.675317 4.107340 -3.541704 -0.347267 2.798574 0.000000 0.000000 0.000000 -6.663837 -6.436685 2.095178 -69.331593 -22.240346 2.358425 -2.078788 -3.046561 -0.042836 19.212961 7.111925 1.194221 -0.092760 0.095012 0.000000 0.000000 0.000000 0.000000 0.000000 0.000000 0.000000 17.559544 1.780602 -0.132868 73.550112 23.508183 8.425340 3.327590 18.710482 0.008476 8.842366 4.403648 0.345772 -0.010598 -0.058417 -0.000000 0.000000 0.000000 0.000000 0.000000 0.000000 0.000000 
2.738561 17.357513 0.550573 131.872461 86.101867 164.010370 5.158864 -0.943008 2.546300 0.317589 -1.174352 -2.239483 -5.677988 -1.307710 1.211409 11.939597 4.513315 3.867491 -3.597249 -0.349974 2.734016 0.000000 0.000000 0.000000 -6.515034 -5.948031 2.201896 -68.202953 -20.341956 1.721456 -2.205175 -3.122665 -0.040211 18.043862 7.805059 1.232136 -0.088738 0.090772 0.000000 0.000000 0.000000 0.000000 0.000000 0.000000 0.000000 17.657483 1.846671 -0.178179 74.716936 24.046290 13.034461 3.270146 20.244935 0.008183 9.600974 4.093690 0.349651 -0.022225 -0.056948 -0.000000 0.000000 0.000000 0.000000 0.000000 0.000000 0.000000 
2.990840 17.418117 0.573348 126.237695 86.084763 158.501539 4.528283 -0.834292 2.455878 0.164452 -1.045136 -2.266417 -5.685134 -1.175691 1.212584 11.759976 4.344902 3.638864 -3.651434 -0.352777 2.671900 0.000000 0.000000 0.000000 -6.367226 -5.451474 2.301682 -67.036110 -18.857548 1.917880 -2.375829 -2.535353 -0.037012 16.460397 8.109262 1.167955 -0.087873 0.086788 0.000000 0.000000 0.000000 0.000000 0.000000 0.000000 0.000000 17.816469 1.923425 -0.222883 75.741933 24.591332 17.521483 3.169343 21.941529 0.008168 10.058719 3.916270 0.351232 -0.033294 -0.058436 -0.000000 0.000000 0.000000 0.000000 0.000000 0.000000 0.000000 
3.243893 17.475039 0.595416 119.521811 86.098939 151.905791 3.843179 -0.705830 2.386471 -0.001787 -0.892561 -2.288127 -5.697531 -1.019756 1.213409 11.617313 4.161356 3.413173 -3.704497 -0.355550 2.609727 0.000000 0.000000 0.000000 -6.225889 -4.888175 2.380942 -65.864414 -17.520018 2.010969 -2.560892 -1.928129 -0.033262 14.635778 7.901279 1.011183 -0.088650 0.083327 0.000000 0.000000 0.000000 0.000000 0.000000 0.000000 0.000000 18.021799 2.002160 -0.270173 76.653118 25.169045 21.803721 3.036458 23.733032 0.008513 10.209287 3.910560 0.356719 -0.043015 -0.063410 -0.000000 0.000000 0.000000 0.000000 0.000000 0.000000 0.000000 
3.497907 17.527537 0.616767 111.528833 86.127933 144.018599 3.115887 -0.552110 2.332156 -0.177887 -0.712213 -2.307055 -5.712049 -0.835758 1.209380 11.499957 3.982719 3.204229 -3.750808 -0.358130 2.551652 0.000000 0.000000 0.000000 -6.092780 -4.299719 2.443480 -64.673173 -16.421231 2.641595 -2.770803 -1.015999 -0.028914 12.596877 7.260728 0.799117 -0.091672 0.079357 0.000000 0.000000 0.000000 0.000000 0.000000 0.000000 0.000000 18.230494 2.099633 -0.322841 77.498889 25.760112 25.745559 2.880842 25.560098 0.009167 10.068958 4.083945 0.368214 -0.050906 -0.072083 -0.000000 0.000000 0.000000 0.000000 0.000000 0.000000 0.000000 
3.753126 17.574779 0.637194 102.243956 86.155443 134.821845 2.367576 -0.370935 2.289510 -0.358412 -0.502876 -2.324328 -5.726006 -0.622567 1.199770 11.396281 3.796154 3.009885 -3.789384 -0.360430 2.497318 0.000000 0.000000 0.000000 -5.962491 -3.682456 2.483856 -63.488425 -15.469210 3.601640 -2.991095 0.033475 -0.023955 10.486217 6.176609 0.565455 -0.096278 0.074662 0.000000 0.000000 0.000000 0.000000 0.000000 0.000000 0.000000 18.417773 2.200901 -0.382692 78.321982 26.375605 29.333424 2.715001 27.367999 0.009994 9.658043 4.450198 0.385618 -0.056258 -0.084483 0.000000 0.000000 0.000000 0.000000 0.000000 0.000000 0.000000 
4.009775 17.615912 0.656571 91.924324 86.159857 124.570078 1.631612 -0.168426 2.254113 -0.534696 -0.271888 -2.344468 -5.736097 -0.387919 1.173048 11.290300 3.615603 2.835944 -3.818428 -0.362416 2.448829 0.000000 0.000000 0.000000 -5.824672 -3.067380 2.503778 -62.318653 -14.378680 4.967445 -3.215338 0.674576 -0.018756 8.430065 4.934695 0.363195 -0.102240 0.068148 0.000000 0.000000 0.000000 0.000000 0.000000 0.000000 0.000000 18.546888 2.324029 -0.447725 79.162690 26.984044 32.516747 2.550980 29.140540 0.010844 9.027227 4.983583 0.404332 -0.058685 -0.100333 0.000000 0.000000 0.000000 0.000000 0.000000 0.000000 0.000000 
4.268059 17.650258 0.674656 81.181005 86.120611 113.880025 0.947416 0.027317 2.226914 -0.696836 -0.048461 -2.373821 -5.741152 -0.161565 1.108836 11.155693 3.428437 2.674789 -3.843183 -0.364357 2.404804 0.000000 0.000000 0.000000 -5.657402 -2.511652 2.514437 -61.076119 -12.155716 6.788923 -3.441219 -1.209675 -0.015016 6.559565 4.540505 0.261339 -0.109426 0.056506 0.000000 0.000000 0.000000 0.000000 0.000000 0.000000 0.000000 18.600328 2.480642 -0.504098 80.058355 27.585779 35.342699 2.408121 30.851381 0.011671 8.227549 5.671301 0.419963 -0.057352 -0.119524 0.000000 0.000000 0.000000 0.000000 0.000000 0.000000 0.000000 
4.528151 17.677265 0.691304 70.820081 86.022625 103.554558 0.328707 0.223283 2.187428 -0.843985 0.172829 -2.408026 -5.751205 0.062149 1.036511 11.010750 3.239693 2.530862 -3.856081 -0.365827 2.366541 0.000000 0.000000 0.000000 -5.501396 -1.981681 2.520172 -59.778845 -9.864740 8.844917 -3.636362 -3.267613 -0.011642 4.964860 3.987752 0.175181 -0.116741 0.042696 0.000000 0.000000 0.000000 0.000000 0.000000 0.000000 0.000000 18.575441 2.644551 -0.569391 81.010836 28.165808 37.813943 2.279675 32.508493 0.012238 7.327005 6.477536 0.427603 -0.053374 -0.140966 0.000000 0.000000 0.000000 0.000000 0.000000 0.000000 0.000000 
4.790083 17.696642 0.706432 61.543399 85.868194 94.299910 -0.223523 0.407721 2.129831 -0.976259 0.380067 -2.448176 -5.767663 0.271274 0.956126 10.856260 3.054882 2.405360 -3.857193 -0.366826 2.334583 0.000000 0.000000 0.000000 -5.357496 -1.488752 2.523520 -58.423034 -7.516780 10.989765 -3.789403 -5.437463 -0.008703 3.716049 3.333456 0.110917 -0.123501 0.027117 0.000000 0.000000 0.000000 0.000000 0.000000 0.000000 0.000000 18.473106 2.812687 -0.644689 82.018994 28.711364 39.950920 2.167633 34.122493 0.012521 6.397974 7.358962 0.424451 -0.047485 -0.163895 -0.000000 0.000000 0.000000 0.000000 0.000000 0.000000 0.000000 
5.053825 17.708383 0.720045 53.756856 85.670429 86.530221 -0.720890 0.571072 2.052377 -1.096866 0.564014 -2.490605 -5.792500 0.456936 0.882252 10.696377 2.849977 2.282329 -3.850078 -0.367330 2.304309 0.000000 0.000000 0.000000 -5.232165 -0.977313 2.523026 -57.001666 -5.208124 13.183009 -3.896697 -7.635873 -0.006211 2.827502 2.655247 0.068447 -0.129339 0.010393 0.000000 0.000000 0.000000 0.000000 0.000000 0.000000 0.000000 18.318237 2.951757 -0.733989 83.076377 29.257141 41.851097 2.072773 35.686352 0.012549 5.490586 8.287545 0.410506 -0.040261 -0.187549 -0.000000 0.000000 0.000000 0.000000 0.000000 0.000000 0.000000 
5.319201 17.712579 0.732196 47.558828 85.447946 80.351046 -1.179706 0.709463 1.950179 -1.209483 0.721299 -2.538855 -5.824413 0.615540 0.804563 10.535169 2.657370 2.175967 -3.834036 -0.367448 2.279745 0.000000 0.000000 0.000000 -5.114519 -0.492671 2.521817 -55.535677 -2.909694 15.224183 -3.960975 -9.809003 -0.004087 2.276945 2.006247 0.042571 -0.134026 -0.006651 0.000000 0.000000 0.000000 0.000000 0.000000 0.000000 0.000000 18.111873 3.090285 -0.834248 84.162037 29.763228 43.472049 1.993803 37.231215 0.012448 4.679411 9.197192 0.388460 -0.032935 -0.211236 -0.000000 0.000000 0.000000 0.000000 0.000000 0.000000 0.000000 
5.586045 17.709441 0.742838 42.811851 85.219762 75.632510 -1.612370 0.821730 1.823302 -1.317091 0.851211 -2.590728 -5.863178 0.746573 0.730597 10.377136 2.469448 2.078983 -3.811945 -0.367222 2.258560 0.000000 0.000000 0.000000 -5.001767 -0.003250 2.519178 -54.039869 -0.683782 17.066064 -3.990796 -11.894131 -0.002276 2.001009 1.442573 0.027590 -0.137718 -0.023293 0.000000 0.000000 0.000000 0.000000 0.000000 0.000000 0.000000 17.875295 3.217055 -0.946238 85.257180 30.248824 44.869528 1.929399 38.760400 0.012333 4.000158 10.049327 0.363015 -0.026196 -0.234344 -0.000000 0.000000 0.000000 0.000000 0.000000 0.000000 0.000000 
5.854104 17.699167 0.751891 39.249239 85.001897 72.111149 -2.024197 0.910202 1.673457 -1.420900 0.956309 -2.645806 -5.907354 0.852604 0.659867 10.224653 2.292495 1.993467 -3.785171 -0.366735 2.241111 0.000000 0.000000 0.000000 -4.887133 0.485878 2.516075 -52.539747 1.458657 18.633815 -3.997020 -13.853751 -0.000739 1.921216 0.998894 0.018905 -0.140690 -0.038951 -0.000000 0.000000 0.000000 0.000000 0.000000 0.000000 0.000000 17.618427 3.337843 -1.068137 86.340575 30.712997 46.060354 1.877614 40.284188 0.012311 3.479961 10.801952 0.339566 -0.020705 -0.256376 -0.000000 0.000000 0.000000 0.000000 0.000000 0.000000 0.000000 
6.123160 17.681805 0.759176 36.545204 84.807144 69.460229 -2.413603 0.978771 1.508074 -1.520573 1.040512 -2.700107 -5.955183 0.937831 0.600675 10.079173 2.119925 1.910912 -3.755340 -0.365942 2.224627 0.000000 0.000000 0.000000 -4.762713 1.017224 2.512483 -51.061164 3.443878 19.932835 -3.990475 -15.632796 0.000523 1.956945 0.689175 0.013816 -0.143350 -0.053159 -0.000000 0.000000 0.000000 0.000000 0.000000 0.000000 0.000000 17.351857 3.447280 -1.201652 87.397527 31.171989 47.086803 1.836114 41.807553 0.012453 3.121431 11.424821 0.322312 -0.016744 -0.276878 -0.000000 0.000000 0.000000 0.000000 0.000000 0.000000 0.000000 
